<?xml version="1.0" encoding="utf-8"?>
<!-- Generator: Adobe Illustrator 22.1.0, SVG Export Plug-In . SVG Version: 6.00 Build 0)  -->
<svg version="1.1" id="Layer_1" xmlns="http://www.w3.org/2000/svg" xmlns:xlink="http://www.w3.org/1999/xlink" x="0px" y="0px"
	 viewBox="0 0 512 512" style="enable-background:new 0 0 512 512;" xml:space="preserve">
<style type="text/css">
	.st0{fill:#FFFFFF;}
</style>
<g>
	<path class="st0" d="M331.1,338.2C308.9,350.8,283.3,358,256,358s-52.9-7.2-75.1-19.8C122.2,356.2,77.3,396,64,448h384
		C434.7,396,389.9,356.1,331.1,338.2z"/>
	<g>
		<path class="st0" d="M256,64c-72.9,0-131.9,59.1-131.9,132S183.2,328,256,328s131.9-59.1,131.9-132S328.9,64,256,64z M256,295
			c-42,0-77.8-26-92.2-63h184.4C333.8,269,298,295,256,295z"/>
	</g>
</g>
</svg>
