<?xml version="1.0" encoding="utf-8"?>
<!-- Generator: Adobe Illustrator 22.1.0, SVG Export Plug-In . SVG Version: 6.00 Build 0)  -->
<svg version="1.1" id="Capa_1" xmlns="http://www.w3.org/2000/svg" xmlns:xlink="http://www.w3.org/1999/xlink" x="0px" y="0px"
	 viewBox="0 0 512 512" style="enable-background:new 0 0 512 512;" xml:space="preserve">
<style type="text/css">
	.st0{fill:#FFFFFF;}
</style>
<g>
	<g>
		<g>
			<path class="st0" d="M249.8,293.9h-12.5c-6.5,0-11.7-5.2-11.7-11.7c0-2.4,1-4.7,2.7-6.4c7.2-7,13.3-16.5,17.7-26.7
				c0.9,0.7,1.9,1.1,2.9,1.1c7,0,15.2-15.5,15.2-26s-1-19.1-8-19.1c-0.8,0-1.7,0.1-2.6,0.4c-0.5-28.6-7.7-64.2-51.3-64.2
				c-45.5,0-50.8,35.6-51.3,64.1c-0.6-0.1-1.3-0.3-1.9-0.3c-7,0-8,8.5-8,19.1s8.2,26,15.2,26c0.9,0,1.7-0.2,2.4-0.7
				c4.4,10.1,10.4,19.3,17.5,26.3c1.7,1.7,2.7,3.9,2.7,6.3c0,6.5-5.2,11.7-11.7,11.7h-12.5c-26.6,0-48.2,21.6-48.2,48.2v13.4
				c0,8.4,6.8,15.2,15.2,15.2h161c8.4,0,15.2-6.8,15.2-15.2V342C298,315.5,276.4,293.9,249.8,293.9z"/>
			<path class="st0" d="M394.2,161.5h-135c3.9,8.6,6.7,19.2,7.8,32.4c2.9,1.8,5,4.6,6.8,8.1h120.3c6.3,0,11.3-5,11.3-11.3v-17.9
				C405.5,166.6,400.4,161.5,394.2,161.5z"/>
			<path class="st0" d="M394.2,235.3H276.6c-3.2,12.1-11,24.7-21.9,28c-0.3,0.6-0.7,1.1-1,1.7v10.7h140.5c6.2,0,11.3-5,11.3-11.3
				v-17.9C405.5,240.3,400.4,235.3,394.2,235.3z"/>
			<path class="st0" d="M394.2,309.1h-91.8c6.1,9.6,9.6,20.9,9.6,33.1v7.4h82.2c6.3,0,11.3-5,11.3-11.3v-17.9
				C405.5,314.1,400.4,309.1,394.2,309.1z"/>
			<path class="st0" d="M442.7,49H69.3C31,49,0,80,0,118.3v275.3C0,432,31,463,69.3,463h373.4c38.3,0,69.3-31,69.3-69.3V118.3
				C512,80,481,49,442.7,49z M479.3,393.7c0,20.2-16.4,36.6-36.6,36.6H69.3c-20.2,0-36.6-16.4-36.6-36.6V118.3
				c0-20.2,16.4-36.6,36.6-36.6h373.4c20.2,0,36.6,16.4,36.6,36.6L479.3,393.7L479.3,393.7z"/>
		</g>
	</g>
</g>
</svg>
