<?xml version="1.0" encoding="utf-8"?>
<!-- Generator: Adobe Illustrator 22.1.0, SVG Export Plug-In . SVG Version: 6.00 Build 0)  -->
<svg version="1.1" id="Capa_1" xmlns="http://www.w3.org/2000/svg" xmlns:xlink="http://www.w3.org/1999/xlink" x="0px" y="0px"
	 viewBox="0 0 31.1 31.1" style="enable-background:new 0 0 31.1 31.1;" xml:space="preserve">
<style type="text/css">
	.st0{fill:#FFFFFF;}
	.st1{fill:#FFFFFF;stroke:#FFFFFF;stroke-width:1.7748;stroke-linecap:round;stroke-linejoin:round;stroke-miterlimit:10;}
</style>
<g>
	<g>
		<path class="st0" d="M23.1,31.1H7.9c-4.4,0-7.9-3.6-7.9-7.9V7.9C0,3.6,3.6,0,7.9,0h15.2c4.4,0,7.9,3.6,7.9,7.9v15.2
			C31.1,27.5,27.5,31.1,23.1,31.1z M7.9,1.8c-3.4,0-6.2,2.8-6.2,6.2v15.2c0,3.4,2.8,6.2,6.2,6.2h15.2c3.4,0,6.2-2.8,6.2-6.2V7.9
			c0-3.4-2.8-6.2-6.2-6.2L7.9,1.8L7.9,1.8z"/>
	</g>
	<g>
		<path class="st0" d="M30.2,11.7H19.2c-0.5,0-0.9-0.4-0.9-0.9s0.4-0.9,0.9-0.9h10.9c0.5,0,0.9,0.4,0.9,0.9
			C31.1,11.3,30.7,11.7,30.2,11.7z"/>
	</g>
	<g>
		<path class="st0" d="M11.6,11.7H0.9c-0.5,0-0.9-0.4-0.9-0.9c0-0.5,0.4-0.9,0.9-0.9h10.7c0.5,0,0.9,0.4,0.9,0.9
			C12.5,11.3,12.1,11.7,11.6,11.7z"/>
	</g>
	<g>
		<path class="st0" d="M15.5,22.5c-3.8,0-6.9-3.1-6.9-6.9s3.1-6.9,6.9-6.9c3.8,0,6.9,3.1,6.9,6.9C22.5,19.3,19.3,22.5,15.5,22.5z
			 M15.5,10.4c-2.8,0-5.1,2.3-5.1,5.1s2.3,5.1,5.1,5.1s5.1-2.3,5.1-5.1S18.4,10.4,15.5,10.4z"/>
	</g>
	<g>
		<path class="st0" d="M25.6,9.4h-4c-0.5,0-0.9-0.4-0.9-0.9v-4c0-0.5,0.4-0.9,0.9-0.9h4c0.5,0,0.9,0.4,0.9,0.9v4
			C26.4,9,26,9.4,25.6,9.4z M22.5,7.6h2.2V5.4h-2.2V7.6z"/>
	</g>
	<g>
		<path class="st1" d="M19.2,10.8"/>
	</g>
</g>
</svg>
